<?xml version="1.0" encoding="utf-8"?>
<!-- Generator: Adobe Illustrator 24.2.0, SVG Export Plug-In . SVG Version: 6.00 Build 0)  -->
<svg version="1.1" id="Layer_1" xmlns="http://www.w3.org/2000/svg" xmlns:xlink="http://www.w3.org/1999/xlink" x="0px" y="0px"
	 viewBox="0 0 792 612" style="enable-background:new 0 0 792 612;" xml:space="preserve">
<style type="text/css">
	.st0{font-family:'MyriadPro-Regular';}
	.st1{font-size:12px;}
</style>
<g>
	<g>
		<path d="M168.95,4.14c-2.06,39.69-0.26,79.43,2.62,119.03c2.88,39.61,6.6,79.15,11.11,118.61c4.39,38.44,10.94,76.92,9.74,115.73
			c-0.61,19.8-2.55,39.54-3.85,59.3c-1.29,19.59-2.3,39.21-3.11,58.83c-1.84,44.45-2.69,88.94-3.53,133.43c-0.06,3.22,4.94,3.22,5,0
			c0.75-39.67,1.51-79.35,2.97-119.01c0.72-19.62,1.62-39.24,2.78-58.84c1.17-19.85,2.92-39.66,4.09-59.52
			c1.14-19.33,0.95-38.55-0.74-57.84c-1.69-19.3-4.38-38.5-6.67-57.73c-4.7-39.43-8.6-78.96-11.69-118.55
			c-3.47-44.37-6.02-88.93-3.71-133.43C174.11,0.92,169.11,0.93,168.95,4.14L168.95,4.14z"/>
	</g>
</g>
<g>
	<g>
		<path d="M16.08,15.75c8.8,0,17.59,0,26.39,0c3.22,0,3.22-5,0-5c-8.8,0-17.59,0-26.39,0C12.87,10.75,12.86,15.75,16.08,15.75
			L16.08,15.75z"/>
	</g>
</g>
<g>
	<g>
		<path d="M16.78,30.33c7.64,0,15.28,0,22.92,0c3.22,0,3.22-5,0-5c-7.64,0-15.28,0-22.92,0C13.56,25.33,13.56,30.33,16.78,30.33
			L16.78,30.33z"/>
	</g>
</g>
<g>
	<g>
		<path d="M11.92,46.35c10.41-0.31,20.83-0.63,31.24-0.94c3.21-0.1,3.22-5.1,0-5c-10.41,0.31-20.83,0.63-31.24,0.94
			C8.71,41.45,8.69,46.45,11.92,46.35L11.92,46.35z"/>
	</g>
</g>
<text transform="matrix(1 0 0 1 77.8887 16.0278)" class="st0 st1">collapsed menu</text>
<text transform="matrix(1 0 0 1 13.3057 77.8335)" class="st0 st1">click to expand</text>
<g>
	<g>
		<path d="M103.11,46.58c0.02,19.57,0.05,39.13,0.07,58.7s0.05,39.13,0.07,58.7c0.01,10.99,0.03,21.98,0.04,32.97
			c1.42-0.59,2.85-1.18,4.27-1.77c-8.81-7.26-16.81-15.52-23.68-24.63c-1.31,1.01-2.62,2.02-3.93,3.03
			c8.29,7.4,16.57,14.8,24.86,22.19c1.76,1.57,3.61,3.68,6.03,4.17c2.72,0.55,4.68-1.13,6.3-3.07c3.62-4.34,7.23-8.7,10.85-13.04
			c4.04-4.86,8.08-9.72,12.12-14.58c0.86-1.04,1.02-2.52,0-3.54c-0.89-0.89-2.67-1.04-3.54,0c-6.7,8.06-13.4,16.11-20.1,24.17
			c-0.74,0.9-1.49,1.79-2.23,2.69c-0.51,0.62-1.34,2.07-2.13,2.38c-0.46,0.18-0.72-0.07-1.15-0.39c-0.99-0.73-1.88-1.66-2.79-2.48
			c-3.87-3.45-7.73-6.9-11.6-10.36c-4.36-3.89-8.72-7.78-13.08-11.67c-0.93-0.83-2.28-1-3.28-0.2c-0.88,0.7-1.4,2.22-0.64,3.23
			c7.15,9.47,15.31,18.09,24.47,25.64c1.6,1.32,4.27,0.55,4.27-1.77c-0.02-19.57-0.05-39.13-0.07-58.7s-0.05-39.13-0.07-58.7
			c-0.01-10.99-0.03-21.98-0.04-32.97C108.11,43.37,103.11,43.36,103.11,46.58L103.11,46.58z"/>
	</g>
</g>
<g>
	<g>
		<path d="M36.61,65.33c0.03-2.38,0.05-4.77,0.08-7.15c0.02-2.25,0.01-4.6-1.94-6.11c-2.21-1.7-5.08-0.5-6.77,1.33
			c-1.59,1.72-2.73,3.7-3.59,5.86c-0.68,1.72,1.38,3.71,3.08,3.08c2.11-0.79,3.54-2.34,4.58-4.3c0.42-0.79,0.76-1.61,1.17-2.41
			c0.2-0.39,0.43-0.77,0.68-1.13c0.26-0.38-0.15,0.14,0.16-0.2c0.2-0.22,0.4-0.42,0.61-0.62c0.33-0.31-0.22,0.1,0.17-0.12
			c0.18-0.1,0.35-0.21,0.54-0.29c-0.39,0.18-0.06,0.07,0.15,0.01c-0.06,0.02-0.43,0-0.18,0.04c0.07,0.01,0.48,0.07,0.16-0.01
			c-0.33-0.08,0.06,0.02,0.14,0.06c0.24,0.12-0.24-0.13-0.25-0.11c0.01-0.02,0.37,0.22,0.37,0.21c-0.02,0.02-0.47-0.41-0.08-0.04
			c0.05,0.04,0.09,0.11,0.14,0.15c0.18,0.13-0.23-0.39-0.14-0.18c0.06,0.14,0.17,0.29,0.25,0.42c0.03,0.06,0.06,0.13,0.09,0.19
			c0.13,0.21-0.11-0.24-0.11-0.26c-0.04,0.22,0.24,0.73,0.3,0.95c0.18,0.69,0.3,1.4,0.43,2.11c0.37,1.93,0.93,3.72,2.21,5.25
			c0.84,1.01,2.68,0.93,3.54,0c0.98-1.07,0.9-2.46,0-3.54c-0.27-0.32,0.27,0.46-0.02-0.06c-0.08-0.14-0.16-0.27-0.23-0.41
			c-0.29-0.53,0.1,0.35-0.04-0.06c-0.07-0.21-0.14-0.41-0.21-0.62c-0.22-0.73-0.35-1.48-0.49-2.22c-0.29-1.52-0.59-3.17-1.53-4.44
			c-1.4-1.91-3.85-2.93-6.17-2.11c-2.29,0.81-3.97,2.75-5,4.9c-0.45,0.92-0.86,1.87-1.39,2.75c-0.14,0.23-0.29,0.45-0.44,0.67
			c0.3-0.43-0.11,0.11-0.24,0.24c-0.06,0.06-0.17,0.13-0.21,0.2c-0.14,0.21,0.29-0.14,0.06-0.04c-0.13,0.06-0.91,0.44-0.35,0.23
			c1.03,1.03,2.05,2.05,3.08,3.08c0.16-0.41-0.03,0.04,0.08-0.19c0.09-0.19,0.17-0.37,0.26-0.55c0.17-0.33,0.34-0.65,0.53-0.97
			c0.21-0.35,0.43-0.69,0.67-1.02c0.04-0.06,0.36-0.48,0.12-0.18c0.1-0.13,0.21-0.25,0.31-0.38c0.25-0.29,0.51-0.56,0.79-0.83
			c0.31-0.3-0.11,0.01,0.11-0.08c0.1-0.04,0.55-0.26,0.07-0.09c0.07-0.02,0.36-0.06,0.4-0.11c-0.11,0.14-0.52,0.02-0.65-0.04
			c-0.15-0.07-0.48-0.33-0.18-0.1c-0.06-0.07-0.11-0.14-0.17-0.22c0.11,0.2,0.12,0.21,0.04,0.04c-0.13-0.31,0.01,0.09,0.03,0.15
			c0.07,0.29,0.05,0.35,0.03,0.02c0.03,0.33,0.04,0.66,0.04,1c0,0.91-0.02,1.81-0.03,2.72c-0.02,1.86-0.04,3.72-0.06,5.58
			c-0.01,1.31,1.16,2.56,2.5,2.5C35.47,67.77,36.59,66.73,36.61,65.33L36.61,65.33z"/>
	</g>
</g>
<g>
	<g>
		<path d="M29.16,274.6c-0.14,0.02-0.28,0.03-0.42,0.05c0.08-0.01,0.16-0.01,0.24,0c-0.14-0.02-0.29-0.04-0.43-0.06
			c0.07,0.02,0.15,0.04,0.22,0.06c-0.13-0.05-0.26-0.11-0.39-0.16c0.07,0.04,0.14,0.07,0.2,0.12c-0.4-0.12-0.4-0.35-0.13-0.08
			c0.09,0.08,0.16,0.21,0.26,0.28c-0.04-0.03-0.35-0.52-0.16-0.19c0.15,0.27,0.28,0.6,0.46,0.85c-0.34-0.48-0.14-0.33-0.04-0.08
			c0.05,0.13,0.09,0.26,0.13,0.39c0.07,0.22,0.13,0.45,0.18,0.67c0.07,0.3,0.14,0.59,0.21,0.89c0.03,0.15,0.06,0.3,0.09,0.46
			c0.01,0.08,0.12,0.75,0.05,0.28c-0.06-0.45,0,0.06,0.01,0.13c0.01,0.15,0.03,0.3,0.03,0.46c0.01,0.3,0.01,0.6-0.01,0.9
			c0,0.05-0.01,0.1-0.01,0.15c-0.03,0.27-0.02,0.19,0.03-0.23c-0.04,0.1-0.05,0.24-0.07,0.35c-0.03,0.11-0.06,0.23-0.09,0.34
			c-0.03,0.09-0.06,0.18-0.09,0.26c0.17-0.38,0.19-0.45,0.08-0.21c-0.07,0.12-0.15,0.24-0.22,0.36c-0.26,0.43,0.41-0.4,0.03-0.06
			c-0.07,0.06-0.27,0.21-0.31,0.29c0.03-0.06,0.51-0.33,0.17-0.15c-0.09,0.05-0.29,0.13-0.36,0.2c0.12-0.05,0.23-0.09,0.35-0.14
			c-0.08,0.03-0.17,0.06-0.26,0.09c-0.13,0.04-0.27,0.07-0.4,0.1c-0.42,0.11,0.66-0.03-0.03-0.01c-0.22,0.01-0.49-0.06-0.71-0.02
			c0.13,0.02,0.25,0.04,0.38,0.05c-0.09-0.01-0.19-0.03-0.28-0.05c-0.14-0.03-0.28-0.06-0.42-0.1c-0.11-0.03-0.3-0.14-0.41-0.14
			c0.11,0.05,0.22,0.1,0.33,0.14c-0.09-0.04-0.17-0.08-0.26-0.12c-0.21-0.11-0.51-0.41-0.73-0.44c0.09,0.07,0.17,0.13,0.26,0.2
			c-0.08-0.07-0.16-0.13-0.24-0.2c-0.12-0.11-0.23-0.21-0.33-0.33c-0.05-0.05-0.24-0.34-0.31-0.35c0.19,0.03,0.28,0.41,0.11,0.13
			c-0.08-0.13-0.17-0.26-0.25-0.4c-0.04-0.07-0.15-0.39-0.21-0.42c0.04,0.1,0.09,0.21,0.13,0.31c-0.04-0.1-0.07-0.19-0.1-0.29
			c-0.06-0.2-0.1-0.39-0.15-0.59c-0.12-0.51,0.02,0.48,0.02,0.13c0-0.13-0.01-0.25-0.01-0.38c0-0.05,0-0.1,0.01-0.15
			c0.02-0.27,0.01-0.2-0.04,0.21c0.06-0.1,0.06-0.31,0.09-0.42c0.01-0.04,0.03-0.09,0.04-0.13c0.09-0.25,0.06-0.18-0.1,0.21
			c0.08-0.09,0.13-0.27,0.2-0.37c0.02-0.03,0.15-0.19,0.15-0.24c-0.25,0.32-0.3,0.37-0.13,0.17c0.06-0.07,0.12-0.14,0.19-0.21
			c0.08-0.08,0.25-0.19,0.31-0.28c-0.09,0.07-0.19,0.15-0.28,0.22c0.08-0.05,0.15-0.11,0.23-0.16c0.1-0.06,0.29-0.12,0.36-0.2
			c-0.25,0.26-0.49,0.18-0.15,0.07c0.11-0.04,0.22-0.06,0.33-0.09c0.48-0.14-0.62,0-0.12,0.02c0.11,0,0.3,0.03,0.41,0.01
			c-0.44-0.07-0.52-0.07-0.25-0.02c0.08,0.02,0.15,0.04,0.23,0.07c-0.45-0.03-0.48-0.23-0.17-0.06c0.25,0.14,0.26,0.3-0.12-0.12
			c0.08,0.09,0.18,0.16,0.26,0.24c0.43,0.45-0.22-0.39-0.02-0.04c0.06,0.1,0.12,0.21,0.18,0.31c0.21,0.35-0.21-0.65-0.03-0.05
			c0.02,0.08,0.04,0.15,0.06,0.23c0.12,0.4-0.03-0.72-0.01-0.09c0,0.11-0.02,0.23-0.01,0.35c0.07-0.47,0.09-0.58,0.04-0.33
			c-0.02,0.07-0.04,0.15-0.06,0.22c-0.11,0.43,0.29-0.57,0.06-0.18c-0.21,0.36,0.39-0.49,0.11-0.13c-0.42,0.55-0.74,1.04-0.73,1.77
			c0.01,0.44,0.1,0.14,0.27-0.92c0.16-0.28,0.37-0.5,0.64-0.66c0.14-0.06,0.28-0.12,0.43-0.18c-0.25,0.06-0.12,0.04,0.39-0.05
			c0.51,0.09,0.64,0.11,0.4,0.05c0.71,0.22,1.17,0.68,1.39,1.38c-0.46-1.22-1.71-2.19-3.08-1.75c-1.19,0.39-2.24,1.76-1.75,3.08
			c0.28,0.76,0.7,1.42,1.42,1.82c0.73,0.4,1.6,0.51,2.41,0.31c1.4-0.34,2.54-1.6,2.48-3.09c-0.24,0.59-0.49,1.18-0.73,1.77
			c1.23-1.42,1.69-3.37,1.02-5.16c-0.64-1.73-2.01-3.27-3.89-3.65c-2.02-0.41-4.05,0.26-5.51,1.7c-1.46,1.43-2.12,3.46-1.85,5.47
			c0.52,3.85,3.91,6.88,7.8,6.94c2.11,0.03,3.97-0.92,5.23-2.59c1.04-1.39,1.35-3.28,1.22-4.97c-0.3-3.75-1.93-9.52-6.82-8.58
			c-1.29,0.25-2.14,1.86-1.75,3.08C26.53,274.23,27.78,274.87,29.16,274.6L29.16,274.6z"/>
	</g>
</g>
<g>
	<g>
		<path d="M35.44,327.66c-0.1-0.18-0.18-0.36-0.28-0.54c0.26,0.48-0.03-0.1-0.08-0.25c-0.06-0.19-0.12-0.39-0.17-0.58
			c-0.03-0.13-0.06-0.26-0.09-0.4c-0.01-0.06-0.09-0.5-0.04-0.17c0.05,0.31-0.02-0.28-0.03-0.38c-0.01-0.24-0.02-0.47-0.01-0.71
			c0.01-0.2,0.02-0.41,0.04-0.61c0-0.06,0.07-0.38,0.01-0.07c-0.07,0.37,0.05-0.2,0.06-0.27c0.04-0.2,0.09-0.39,0.15-0.59
			c0.03-0.1,0.25-0.75,0.14-0.46c-0.1,0.27,0.12-0.25,0.17-0.34c0.11-0.21,0.23-0.41,0.35-0.61c0.07-0.11,0.15-0.22,0.23-0.33
			c-0.02,0.03-0.27,0.3-0.08,0.11c0.14-0.14,0.26-0.29,0.39-0.43c0.16-0.16,0.34-0.3,0.5-0.46c-0.34,0.33,0.02-0.01,0.2-0.13
			c0.36-0.23,0.73-0.42,1.11-0.6c-0.45,0.21,0.01,0.01,0.22-0.06c0.22-0.07,0.44-0.13,0.66-0.18c0.1-0.02,0.49-0.16,0.57-0.11
			c-0.09-0.05-0.45,0.04-0.09,0.02c0.1,0,0.19-0.01,0.29-0.02c0.19-0.01,0.39-0.01,0.58,0c0.13,0.01,0.26,0.02,0.39,0.03
			c0.35,0.01-0.43-0.1-0.09-0.01c0.41,0.1,0.81,0.22,1.21,0.33c-0.4-0.11-0.11-0.05,0.11,0.06c0.23,0.12,0.44,0.26,0.65,0.39
			c0.4,0.24-0.25-0.24,0.1,0.07c0.17,0.15,0.33,0.3,0.49,0.45c0.13,0.14,0.25,0.29,0.38,0.42c0.19,0.2-0.08-0.11-0.1-0.13
			c0.07,0.11,0.15,0.21,0.22,0.31c0.12,0.19,0.24,0.38,0.34,0.57c0.04,0.08,0.31,0.59,0.17,0.3c-0.15-0.29,0.11,0.31,0.15,0.42
			c0.07,0.21,0.13,0.43,0.18,0.64c0.02,0.09,0.04,0.19,0.06,0.28c0.11,0.52-0.03-0.09-0.01-0.1c-0.01,0,0.04,0.52,0.04,0.57
			c0.01,0.22,0,0.44-0.02,0.67c0,0.02-0.03,0.28-0.03,0.28c-0.05-0.02,0.1-0.52,0-0.1c-0.05,0.22-0.1,0.44-0.17,0.66
			c-0.03,0.1-0.25,0.61-0.11,0.34c0.14-0.28-0.13,0.23-0.17,0.31c-0.13,0.23-0.28,0.43-0.41,0.66c-0.14,0.23,0.08-0.1,0.1-0.12
			c-0.06,0.07-0.12,0.15-0.19,0.22c-0.15,0.17-0.31,0.33-0.47,0.49c-0.14,0.13-0.29,0.26-0.44,0.39c0.38-0.34-0.11,0.06-0.29,0.18
			c-0.17,0.1-0.33,0.2-0.51,0.29c-0.09,0.04-0.18,0.08-0.26,0.13c-0.31,0.18,0.4-0.13,0.06-0.02c-0.4,0.13-0.8,0.25-1.21,0.35
			c-0.54,0.12,0.09-0.02,0.09,0c0,0.01-0.27,0.02-0.29,0.02c-0.19,0.01-0.39,0.01-0.58,0.01c-0.14,0-0.28-0.02-0.42-0.03
			c-0.29-0.01,0.09,0,0.12,0.01c-0.24-0.07-0.5-0.15-0.74-0.19c-0.26-0.05,0.04,0.03,0.09,0.05c-0.13-0.06-0.25-0.14-0.38-0.2
			c-0.03-0.01-0.34-0.2-0.1-0.05c0.22,0.15-0.05-0.04-0.08-0.08c-0.05-0.05-0.11-0.13-0.17-0.17c-0.25-0.16,0.22,0.4,0.1,0.14
			c-0.03-0.06-0.22-0.46-0.27-0.47c0.04,0.01,0.15,0.48,0.11,0.24c-0.01-0.1-0.06-0.2-0.08-0.3c-0.01-0.03-0.02-0.21-0.05-0.23
			c0.02,0.02,0.03,0.53,0.04,0.28c0.01-0.15-0.01-0.32-0.01-0.47c-0.01-0.58-0.13,0.43,0.01-0.12c0.04-0.18,0.1-0.36,0.15-0.54
			c0.12-0.45-0.03,0.16-0.08,0.15c0.01,0,0.13-0.26,0.14-0.29c0.04-0.07,0.08-0.14,0.12-0.21c0.14-0.24,0.16-0.09,0.03-0.07
			c-0.03,0.04-0.07,0.08-0.1,0.13c0.05-0.06,0.1-0.12,0.16-0.18c0.07-0.07,0.15-0.15,0.22-0.22c0.37-0.37-0.28,0.13,0.06-0.04
			c-0.02,0.01,0.28-0.15,0.28-0.15c0.01,0.05-0.56,0.17-0.14,0.06c0.12-0.03,0.72-0.14,0.35-0.11c-0.39,0.03,0.34,0.03,0.45,0.02
			c0.31-0.04-0.27-0.01-0.23-0.04c0.03-0.03,0.3,0.06,0.34,0.07c0.11,0.03,0.22,0.07,0.34,0.1c0.33,0.08,0.01-0.06-0.1-0.06
			c0.17,0.01,0.48,0.25,0.63,0.34c0.07,0.05,0.15,0.11,0.22,0.15c0.25,0.12-0.26-0.28-0.09-0.06c0.13,0.15,0.3,0.3,0.44,0.44
			c0.35,0.34-0.04-0.08-0.06-0.09c0.07,0.03,0.16,0.23,0.2,0.3c0.05,0.08,0.09,0.16,0.13,0.23c0.03,0.05,0.06,0.1,0.08,0.16
			c0.08,0.17,0.05,0.11-0.08-0.19c0.1,0.05,0.17,0.59,0.19,0.69c0.26,1.28,1.85,2.14,3.08,1.75c1.36-0.44,2.02-1.7,1.75-3.08
			c-0.53-2.6-2.71-4.72-5.22-5.43c-2.72-0.78-5.52,0.27-7.1,2.59c-1.37,2.01-1.57,4.88-0.34,7.01c1.59,2.75,5.02,3.51,7.94,3.01
			c2.63-0.45,4.95-2.14,6.44-4.31c1.51-2.2,1.89-5.05,1.2-7.61c-0.67-2.5-2.36-4.81-4.64-6.07c-2.33-1.29-5.22-1.53-7.75-0.7
			c-3.08,1.02-5.38,3.27-6.49,6.3c-1.06,2.89-0.68,6.22,0.79,8.89c0.63,1.15,2.31,1.61,3.42,0.9
			C35.7,330.33,36.11,328.89,35.44,327.66L35.44,327.66z"/>
	</g>
</g>
<g>
	<g>
		<path d="M37.73,364.37c0.17-0.11,0.33-0.2,0.51-0.29c-0.53,0.29-0.02,0.04,0.11-0.01c0.51-0.2-0.33-0.05-0.02-0.02
			c0.15,0.01,0.31-0.02,0.46-0.02c0.18,0,0.68,0.15,0.08-0.01c0.18,0.05,0.37,0.08,0.55,0.14c0.12,0.04,0.24,0.08,0.36,0.13
			c-0.6-0.22,0.16,0.1,0.28,0.17c0.17,0.1,0.33,0.22,0.5,0.33c-0.41-0.27-0.13-0.11-0.04-0.02c0.14,0.14,0.29,0.27,0.43,0.42
			c0.07,0.07,0.47,0.59,0.12,0.11c0.2,0.27,0.35,0.56,0.52,0.85c0.31,0.53-0.1-0.46,0.06,0.13c0.05,0.21,0.09,0.48,0.18,0.67
			c0.13,0.29,0.02-0.54-0.01,0.02c-0.01,0.22-0.01,0.44-0.01,0.66c-0.02,0.69,0.14-0.42-0.04,0.24c-0.04,0.15-0.07,0.29-0.11,0.44
			c-0.06,0.22-0.13,0.43-0.22,0.64c0.21-0.5-0.11,0.17-0.14,0.22c-0.09,0.17-0.19,0.33-0.29,0.49c-0.06,0.1-0.13,0.19-0.19,0.28
			c0.16-0.2,0.15-0.19-0.03,0.04c-1.19,1.35-2.31,2.07-3.77,2.51c-0.4,0.12-0.8,0.21-1.21,0.29c-0.77,0.15,0.41,0.01-0.37,0.04
			c-0.22,0.01-0.43,0.03-0.65,0.03c-0.22,0-0.43,0-0.65-0.01c-0.02,0-0.84-0.1-0.36-0.02c-0.5-0.08-1.01-0.21-1.48-0.4
			c0.42,0.17-0.32-0.18-0.33-0.18c-0.04-0.02-0.73-0.49-0.29-0.15c-0.3-0.23-0.57-0.51-0.81-0.8c0.33,0.4-0.11-0.19-0.14-0.24
			c-0.1-0.16-0.19-0.33-0.27-0.5c-0.17-0.36,0.11,0.52-0.04-0.14c-0.03-0.11-0.19-1.01-0.14-0.43c-0.02-0.18-0.02-0.37-0.02-0.55
			c0-0.15,0.1-0.6-0.01-0.1c0.05-0.22,0.1-0.43,0.18-0.64c-0.18,0.48,0.17-0.24,0.18-0.28c0.03-0.05,0.27-0.38,0.05-0.1
			c0.15-0.2,0.34-0.38,0.51-0.56c0.18-0.18,0.37-0.35,0.56-0.51c0.01-0.01,0.6-0.48,0.3-0.24c0.42-0.32,0.86-0.62,1.33-0.87
			c-0.07,0.04,0.69-0.35,0.41-0.22c-0.27,0.12,0.5-0.16,0.43-0.14c0.03-0.01,0.82-0.12,0.35-0.09c0.09-0.01,0.85,0.06,0.25-0.04
			c0.14,0.02,0.28,0.07,0.42,0.1c0.27,0.1,0.27,0.09,0-0.02c0.13,0.06,0.26,0.13,0.38,0.21c0.54,0.26-0.24-0.29,0.19,0.13
			c0.16,0.16,0.31,0.3,0.45,0.47c-0.35-0.42,0.06,0.15,0.11,0.21c0.13,0.26,0.14,0.26,0.03-0.01c0.05,0.13,0.1,0.27,0.14,0.41
			c0.04,0.14,0.07,0.28,0.1,0.42c-0.13-0.75-0.11,0.7,0.01-0.04c-0.03,0.21-0.1,0.4-0.16,0.6c0.12-0.4,0.02-0.11-0.09,0.12
			c-0.25,0.51,0.33-0.26-0.09,0.12c-0.05,0.05-0.6,0.53-0.34,0.34c0.31-0.23-0.24,0.14-0.25,0.14c-0.12,0.07-0.24,0.13-0.36,0.19
			c0.29-0.12,0.3-0.13,0.04-0.03c-0.19,0.05-0.39,0.1-0.58,0.15c0.41-0.1,0.15-0.01-0.13-0.01c-0.18,0-0.7-0.14-0.12,0.01
			c-0.13-0.04-0.9-0.33-0.34-0.07c-1.22-0.57-2.7-0.34-3.42,0.9c-0.63,1.08-0.33,2.85,0.9,3.42c2.64,1.24,5.6,0.79,7.79-1.14
			c2.25-1.98,2.66-5.23,1.31-7.83c-1.43-2.77-4.49-4.17-7.52-3.55c-1.41,0.29-2.71,1.06-3.85,1.91c-1.25,0.94-2.47,1.96-3.25,3.34
			c-1.43,2.53-1.07,5.72,0.63,8.03c1.87,2.53,4.88,3.76,7.99,3.71c5.63-0.09,11.33-4.03,11.99-9.88c0.65-5.76-6.31-11.32-11.57-7.92
			c-1.13,0.73-1.6,2.22-0.9,3.42C34.97,364.6,36.59,365.11,37.73,364.37L37.73,364.37z"/>
	</g>
</g>
<g>
	<g>
		<path d="M33.32,411.98c-0.12,0.05-0.87,0.12-0.44,0.15c-0.6-0.05-0.38-0.06-0.2,0c-0.66-0.22,0.09,0.21-0.39-0.22
			c0.09,0.08,0.22,0.26,0.32,0.31c0.24,0.12-0.25-0.44,0.02,0.02c0.09,0.14,0.18,0.28,0.26,0.43c0.08,0.15,0.16,0.3,0.23,0.46
			c-0.25-0.5,0.01,0.04,0.06,0.17c0.23,0.66,0.35,1.35,0.46,2.04c0.03,0.17,0.05,0.34,0.08,0.51c0.11,0.66-0.03-0.36,0.01,0.06
			c0.04,0.38,0.08,0.76,0.11,1.14c0.05,0.72,0.06,1.44,0.02,2.17c-0.01,0.17-0.03,0.33-0.04,0.5c-0.05,0.63,0.11-0.34,0,0.02
			c-0.11,0.33-0.14,0.7-0.24,1.04c-0.05,0.18-0.13,0.36-0.18,0.54c0.13-0.48,0.11-0.23,0.03-0.08c-0.16,0.29-0.36,0.57-0.51,0.87
			c-0.15,0.29,0.4-0.38-0.01-0.01c-0.11,0.1-0.22,0.22-0.33,0.33c-0.11,0.12-0.46,0.31-0.01,0.03c-0.17,0.11-0.34,0.21-0.51,0.32
			c-0.5,0.34,0.43-0.08-0.15,0.07c-0.16,0.04-0.32,0.1-0.49,0.14c-0.16,0.04-0.59,0.05-0.03,0.02c-0.17,0.01-0.34,0.02-0.51,0.02
			c-0.17,0-0.34-0.01-0.51-0.02c0.55,0.02,0.12,0.02-0.05-0.01c-0.38-0.08-0.74-0.19-1.1-0.32c0.55,0.2-0.08-0.05-0.17-0.09
			c-0.16-0.08-0.31-0.17-0.46-0.26c-0.15-0.09-0.29-0.19-0.44-0.29c0.41,0.29,0.03,0.02-0.07-0.07c-0.13-0.12-0.26-0.24-0.38-0.36
			c0.01,0.01-0.45-0.49-0.22-0.23c0.23,0.27-0.24-0.34-0.22-0.32c-0.13-0.2-0.26-0.4-0.37-0.61c-0.63-1.14-0.95-2.78-0.99-4.2
			c-0.01-0.41-0.01-0.81,0.01-1.22c0.01-0.2,0.02-0.4,0.03-0.6c0-0.03,0.07-0.66,0.02-0.25c-0.05,0.41,0.05-0.24,0.05-0.26
			c0.03-0.16,0.07-0.33,0.11-0.49c0.04-0.16,0.1-0.32,0.14-0.48c0.12-0.46-0.22,0.32,0.09-0.21c0.08-0.14,0.16-0.27,0.24-0.41
			c0.28-0.48-0.26,0.31,0.07-0.06c0.36-0.4-0.42,0.17,0.06-0.05c0.54-0.24-0.44,0.28,0.09-0.03c-0.08,0.01-0.17,0.01-0.25,0.02
			c0.14-0.01,0.28-0.01,0.41,0c-0.54-0.04,0.21,0.17-0.27-0.06c0.07,0.04,0.64,0.41,0.21,0.07c0.17,0.13,0.32,0.29,0.47,0.45
			c-0.31-0.34-0.01-0.01,0.06,0.11c0.06,0.09,0.11,0.19,0.16,0.29c-0.1-0.27-0.1-0.26-0.01,0.01c0.14,0.54,0.16,0.53,0.14,1.21
			c-0.02,0.56-0.04,0.65-0.18,1.3c-0.12,0.56-0.28,1.11-0.43,1.66c-0.35,1.26,0.43,2.78,1.75,3.08c1.33,0.3,2.7-0.4,3.08-1.75
			c0.76-2.7,1.36-5.76-0.18-8.31c-1.52-2.51-4.48-3.77-7.23-2.52c-2.04,0.93-3.11,3.24-3.43,5.35c-0.36,2.41-0.29,4.96,0.4,7.31
			c0.72,2.45,2.11,4.56,4.21,6.03c1.94,1.36,4.4,1.87,6.72,1.46c4.71-0.84,6.53-5.73,6.42-9.97c-0.06-2.26-0.35-4.69-1.23-6.79
			c-0.54-1.28-1.33-2.41-2.48-3.22c-1.36-0.96-2.93-0.85-4.38-0.21c-1.2,0.53-1.57,2.38-0.9,3.42
			C30.71,412.33,32.04,412.54,33.32,411.98L33.32,411.98z"/>
	</g>
</g>
<text transform="matrix(1 0 0 1 70.25 270.8887)" class="st0 st1">Home</text>
<text transform="matrix(1 0 0 1 70.9443 315.333)" class="st0 st1">About</text>
<text transform="matrix(1 0 0 1 75.8057 363.9443)" class="st0 st1">Services</text>
<text transform="matrix(1 0 0 1 76.5 405.6113)" class="st0 st1">Contact</text>
<g>
	<g>
		<path d="M659.14,44.24c8.77-2.5,17.65-4.57,26.63-6.19c4.42-0.8,8.86-1.49,13.32-2.06c4.45-0.57,8.96-1.21,13.45-1.27
			c4.31-0.06,7.91,1.09,11.5,3.45c3.19,2.09,6.24,4.44,9.29,6.72c5.83,4.36,11.52,8.91,16.8,13.92
			c10.15,9.63,18.83,21.27,21.22,35.36c1.44,8.49,0.3,17.26-1.91,25.51c-1.14,4.25-2.58,8.41-4.2,12.5
			c-1.43,3.6-3.12,7.11-5.96,9.82c-2.75,2.62-6.13,4.46-9.46,6.23c-4.12,2.19-8.25,4.36-12.38,6.54
			c-8.2,4.33-16.37,8.74-24.62,12.99c-7.68,3.95-15.58,7.07-24.33,7.15c-8.65,0.08-17.1-2.28-25.1-5.37
			c-7.92-3.06-15.6-6.87-23.15-10.76c-7.03-3.62-13.96-7.74-19.22-13.76c-5.27-6.04-8.43-13.7-10.49-21.37
			c-2.3-8.58-3.17-17.49-2.61-26.35c0.95-15.05,6.29-30.22,16.23-41.71c9.68-11.18,23.77-18.51,38.7-18.72
			c3.61-0.05,7.17,0.32,10.68,1.15c3.13,0.73,4.47-4.09,1.33-4.82c-15.68-3.68-32.54,0.69-45.23,10.4
			c-12.79,9.79-21.18,24.48-24.75,40.07c-4.02,17.49-2.46,36.79,5.08,53.14c3.63,7.87,9.1,14.35,16.14,19.39
			c6.88,4.93,14.68,8.53,22.29,12.18c16.34,7.83,34.84,15.06,53.07,9.61c8.99-2.69,17.23-7.65,25.47-12.01
			c8.65-4.57,17.32-9.09,25.94-13.71c3.58-1.92,7.15-4.01,10.08-6.86c3.14-3.05,5.07-6.89,6.7-10.89
			c3.48-8.52,6.12-17.44,7.02-26.62c0.82-8.39-0.16-16.93-3.21-24.81c-2.74-7.07-6.82-13.43-11.68-19.23
			c-4.89-5.84-10.53-11.02-16.41-15.85c-6.03-4.95-12.29-9.87-18.82-14.15c-4-2.62-8.3-4.06-13.1-4.13
			c-4.63-0.06-9.32,0.63-13.9,1.21c-9.51,1.2-18.95,2.85-28.28,5.01c-4.52,1.05-9.01,2.21-13.47,3.48
			C654.72,40.3,656.03,45.13,659.14,44.24L659.14,44.24z"/>
	</g>
</g>
<g>
	<g>
		<path d="M636.56,81.31c0.2,8.66,0.39,17.33,0.59,25.99c0.05,2.15,0.1,4.29,0.14,6.44c0.05,2.01-0.24,4.43,0.39,6.36
			c1.37,4.22,6.88,3.33,10.3,3.32c4.88-0.02,9.75-0.04,14.63-0.05c3.22-0.01,3.22-5.01,0-5c-5.04,0.02-10.08,0.04-15.12,0.05
			c-1.3,0-2.6,0.03-3.9,0.01c-0.34,0-0.7-0.04-1.04-0.04c-0.67,0.01-0.22-0.32-0.14,0.11c-0.18-0.96-0.06-2.06-0.08-3.04
			c-0.03-1.24-0.06-2.48-0.08-3.71c-0.23-10.15-0.46-20.3-0.69-30.44C641.49,78.1,636.49,78.09,636.56,81.31L636.56,81.31z"/>
	</g>
</g>
<g>
	<g>
		<path d="M667.72,95.92c-2.29-1.63-3.23-4.99-2.73-7.61c0.62-3.19,3.05-5.73,6.19-6.8c1.69-0.58,3.52-0.86,5.3-0.61
			c0.58,0.08,1.34,0.23,1.78,0.64c0.55,0.53,0.63,1.54,0.75,2.26c0.39,2.36,0.59,4.76,0.68,7.15c0.05,1.2,0.06,2.41,0.05,3.61
			c-0.02,1.05,0.15,2.43-0.27,3.43c-0.52,1.23-2.44,1.29-3.88,1.18c-2.74-0.2-5.31-0.92-8.03-0.06c-3.06,0.96-1.75,5.79,1.33,4.82
			c2.6-0.82,5.32,0.37,7.97,0.26c2.58-0.1,5.3-1.01,6.73-3.31c1.57-2.54,1.22-6.18,1.14-9.04c-0.08-3.19-0.37-6.41-0.92-9.56
			c-0.51-2.93-2.17-5.15-5.08-6.01c-2.41-0.71-5.15-0.56-7.57,0.02c-4.88,1.17-9.24,4.74-10.71,9.63
			c-1.58,5.26,0.3,11.12,4.77,14.31c1.1,0.78,2.78,0.19,3.42-0.9C669.35,98.08,668.83,96.7,667.72,95.92L667.72,95.92z"/>
	</g>
</g>
<g>
	<g>
		<path d="M706.36,88.5c-6.59,0.08-11.63,6.33-12.74,12.45c-0.56,3.07-0.2,6.68,2.56,8.61c3.18,2.21,7.1,0.43,9.36-2.21
			c2.73-3.19,4.41-7.41,5.06-11.53c-1.61,0-3.21,0-4.82,0c1.38,4.37,2.51,8.82,3.35,13.33c0.77,4.17,1.48,8.51,1,12.75
			c-0.45,4.03-2.47,7.2-5.09,10.18c-2.04,2.33-4.93,6.31-8.49,5.83c-3.33-0.45-5.45-4.48-6.83-7.14c-1.49-2.86-5.8-0.33-4.32,2.52
			c1.87,3.6,4.38,7.34,8.27,8.94c4.62,1.9,9.05-0.49,12.3-3.77c3.34-3.37,6.68-7.19,8.2-11.76c1.58-4.74,1.17-9.87,0.47-14.73
			c-0.86-5.93-2.23-11.78-4.04-17.49c-0.68-2.14-4.41-2.6-4.82,0c-0.51,3.23-1.63,6.6-3.67,9.21c-0.57,0.72-1.75,2.06-2.83,1.88
			c-0.6-0.1-0.8-0.84-0.9-1.59c-0.28-2.18,0.89-4.85,2.17-6.79c1.32-1.99,3.33-3.66,5.81-3.69
			C709.57,93.46,709.58,88.46,706.36,88.5L706.36,88.5z"/>
	</g>
</g>
<g>
	<g>
		<path d="M729.94,87.51c-1.22,3.65-1.64,7.89-0.45,11.61c1.38,4.28,4.84,7.29,9.35,7.76c4.55,0.48,8.93-1.94,11.31-5.78
			c2.24-3.63,3.11-9.33,0.67-13.08c-1.62-2.49-4.58-3.32-7.35-3.86c-2.85-0.56-5.75-0.73-8.64-0.46c-1.34,0.13-2.5,1.06-2.5,2.5
			c0,1.25,1.15,2.63,2.5,2.5c2-0.19,4.11-0.2,6.06,0.06c0.89,0.12,1.89,0.33,2.81,0.57c0.93,0.24,1.73,0.49,2.35,0.83
			c0.21,0.12,0.37,0.27,0.48,0.42c-0.17-0.23,0.27,0.48,0.23,0.41c0.02,0.04,0.18,0.43,0.07,0.13c0.35,0.94,0.37,1.3,0.39,2.22
			c0.01,0.44-0.02,0.87-0.04,1.31c0,0.05-0.06,0.49,0,0.12c-0.02,0.17-0.06,0.35-0.09,0.52c-0.08,0.43-0.19,0.85-0.32,1.27
			c-0.05,0.17-0.11,0.33-0.17,0.5c-0.16,0.49,0.06-0.06-0.15,0.37c-0.19,0.39-0.39,0.78-0.62,1.15c-0.09,0.15-0.19,0.29-0.28,0.44
			c-0.43,0.68,0.14-0.14-0.16,0.22c-0.25,0.3-0.51,0.59-0.79,0.86c-0.16,0.15-0.32,0.3-0.48,0.43c-0.13,0.11-0.13,0.11,0,0.01
			c-0.1,0.08-0.21,0.15-0.32,0.22c-0.32,0.21-0.66,0.39-1,0.57c-0.7,0.37,0.21-0.06-0.23,0.1c-0.2,0.08-0.4,0.14-0.61,0.21
			c-1.03,0.31-1.15,0.32-2.11,0.32c-0.92,0-0.96-0.01-1.83-0.28c0.06,0.02-0.71-0.25-0.41-0.13c0.3,0.12-0.44-0.22-0.39-0.19
			c-0.15-0.08-0.3-0.16-0.44-0.25c-0.02-0.01-0.68-0.47-0.29-0.17c-0.3-0.23-0.58-0.5-0.83-0.77c-0.1-0.11-0.2-0.22-0.3-0.34
			c0.28,0.32,0.04,0.06-0.02-0.02c-0.21-0.31-0.41-0.62-0.59-0.95c-0.07-0.13-0.13-0.27-0.2-0.4c-0.26-0.5,0.07,0.27-0.1-0.23
			c-0.14-0.44-0.29-0.86-0.39-1.31c-0.04-0.15-0.07-0.3-0.1-0.45c-0.01-0.04-0.13-0.79-0.06-0.26c-0.12-0.86-0.13-1.75-0.1-2.62
			c0.02-0.4,0.06-0.8,0.09-1.2c0.07-0.78-0.1,0.48,0.04-0.29c0.04-0.24,0.08-0.48,0.13-0.71c0.17-0.86,0.4-1.7,0.68-2.53
			c0.43-1.28-0.49-2.73-1.75-3.08C731.65,85.39,730.37,86.23,729.94,87.51L729.94,87.51z"/>
	</g>
</g>
<text transform="matrix(1 0 0 1 348.0278 231.3057)" class="st0 st1">Full screen photo background</text>
<text transform="matrix(1 0 0 1 652.8887 557)" class="st0 st1">Social media icons</text>
<g>
	<g>
		<path d="M633.02,570.9c0.39,3.65,0.7,7.31,1.21,10.95c0.46,3.26,1.79,6,4.57,7.87c2.6,1.75,5.91,2.37,8.96,2.78
			c3.53,0.48,7.1,0.51,10.64,0.09c1.64-0.19,3.33-0.36,4.77-1.24c1.43-0.88,2.28-2.34,2.91-3.86c1.31-3.19,1.95-6.63,1.29-10.05
			c-1.05-5.42-5.45-9.93-10.3-12.26c-7.13-3.41-15.19-2.72-22.8-1.91c-1.34,0.14-2.5,1.05-2.5,2.5c0,1.24,1.15,2.64,2.5,2.5
			c9.31-0.99,22.3-2.17,27.39,7.81c0.95,1.86,1.22,3.97,0.85,6.01c-0.23,1.28-0.61,2.63-1.15,3.82c-0.5,1.08-0.95,1.36-2.11,1.56
			c-2.72,0.48-5.6,0.52-8.35,0.35c-2.62-0.16-5.41-0.52-7.87-1.51c-1.03-0.41-2.14-1.02-2.81-1.95c-0.7-0.97-0.94-2.26-1.11-3.42
			c-0.47-3.33-0.73-6.7-1.09-10.04c-0.15-1.34-1.04-2.5-2.5-2.5C634.28,568.4,632.88,569.55,633.02,570.9L633.02,570.9z"/>
	</g>
</g>
<g>
	<g>
		<path d="M683.99,568.74c-0.59,3.22-0.98,6.49-1.08,9.76c-0.05,1.53-0.04,3.05,0.03,4.58c0.07,1.58,0.09,3.31,0.98,4.68
			c1.61,2.49,5.15,2.85,7.81,3.38c3.11,0.63,6.27,1,9.42,0.55c5.42-0.78,10.2-4.19,11.57-9.66c0.66-2.63,0.64-5.41,0.55-8.11
			c-0.09-2.58-0.45-5.26-2.12-7.32c-2.14-2.64-5.5-2.79-8.63-3.05c-3.8-0.32-7.61-0.6-11.42-0.85c-1.35-0.09-2.5,1.21-2.5,2.5
			c0,1.43,1.15,2.41,2.5,2.5c2.65,0.18,5.3,0.36,7.94,0.57c1.32,0.1,2.65,0.21,3.97,0.32c1,0.08,2.06,0.1,3.02,0.41
			c1.52,0.49,1.94,1.82,2.13,3.3c0.26,2.1,0.23,4.36,0.05,6.46c-0.15,1.8-0.64,3.72-1.88,5.09c-1.21,1.33-2.8,2.16-4.52,2.62
			c-4.31,1.16-9.19-0.03-13.37-1.24c-0.13-0.04-0.26-0.1-0.36-0.2c0.18,0.18-0.01-0.01-0.03-0.25c-0.04-0.56-0.09-1.13-0.12-1.7
			c-0.06-1.45-0.08-2.89-0.04-4.34c0.08-2.91,0.38-5.81,0.91-8.67c0.24-1.33-0.36-2.7-1.75-3.08
			C685.85,566.66,684.23,567.41,683.99,568.74L683.99,568.74z"/>
	</g>
</g>
<g>
	<g>
		<path d="M741.62,562.42c-4.33,5.18-9.02,11.13-8.41,18.31c0.29,3.35,1.63,6.53,4.24,8.72c2.47,2.07,5.52,3.14,8.71,3.42
			c3.64,0.32,7.36-0.63,10.73-1.94c3.04-1.18,5.97-2.57,8.49-4.65c2.37-1.96,4.19-4.69,4.67-7.76c0.48-3.12-0.25-6.26-1.79-9
			c-3.85-6.85-11.63-9.33-18.75-11.25c-3.11-0.84-4.44,3.98-1.33,4.82c4.98,1.34,10.54,2.74,14.16,6.7
			c2.99,3.28,4.12,8.23,0.85,11.71c-1.6,1.7-3.66,2.85-5.76,3.82c-2.45,1.13-5.11,2.08-7.79,2.46c-4.71,0.67-10.15-1.07-11.28-6.2
			c-1.32-5.99,3.26-11.4,6.8-15.64c0.87-1.04,1.01-2.52,0-3.54C744.26,561.53,742.49,561.38,741.62,562.42L741.62,562.42z"/>
	</g>
</g>
</svg>
